<svg xmlns="http://www.w3.org/2000/svg" viewBox="0 0 1780.68 921.11"><defs><style>.cls-1{fill:#599dad;}.cls-2{fill:#6bb7bf;}.cls-3{fill:#86d1cd;}.cls-4{fill:#efcbab;}.cls-5{fill:#ffebdc;}.cls-6{fill:#efcdaf;}.cls-7{fill:#163560;}.cls-8{fill:#e49963;}.cls-9{fill:#ed7d2b;}.cls-10{fill:#5aa9ad;}.cls-11{fill:#f99746;}.cls-12{fill:#d68d5d;}.cls-13{fill:#4a75cb;}.cls-14{fill:#2b478b;}.cls-15{fill:#233862;}.cls-16{fill:#ffb27d;}.cls-17{fill:#2c3a64;}.cls-18{fill:#ed985f;}.cls-19{fill:#f9ddbf;}.cls-20{fill:#c6916d;}.cls-21{fill:#eac3a0;}.cls-22{fill:#e0b594;}.cls-23{fill:#d39e7a;}.cls-24{fill:#f4a269;}.cls-25{fill:#c65447;}.cls-26{fill:#1c468a;}.cls-27{fill:#b5453c;}.cls-28{fill:#9e332e;}.cls-29{fill:#dd6d22;}.cls-30{fill:#fff;}.cls-31{fill:#2e3552;}</style></defs><g id="Layer_2" data-name="Layer 2"><g id="_Layer_" data-name="&lt;Layer&gt;"><path class="cls-1" d="M331.77,733.19s-29.2-34.06-1.8-55.7c0,0,20-12.12,36.33-11.13,0,0-23.12,38.77-15.64,42.63s22.65-45.06,22.65-45.06,45.54-4.42,60.19,2.62c0,0-38.93,31.86-30.73,33.76S453,670.93,453,670.93s42.39,7.22,40.13,33.08-16.87,33.84-23.29,33.15-44-15-44.78-9.76,21.78,22.44,37.61,23.25c0,0-29.89,33-49.74,23.44S391.39,749.51,379,743.85s-22.95-5.64-17.84.13,27.52,11.37,34.6,23.89,13.43,21-7.12,17.88-53.95-18.12-55.41-35.34Z"/><path class="cls-1" d="M472.32,704.7s-115.12-4.43-140.55,28.49c0,0-5.62,16.84-22.92,32.17l-2.7,7.35s20-21,27.09-22.3C333.24,750.41,322.07,709.62,472.32,704.7Z"/><path class="cls-1" d="M308.85,765.36s-24.71,18.28-26.43,50.93l4.48.4s7.9-33.76,22.16-47S308.85,765.36,308.85,765.36Z"/><path class="cls-2" d="M229.69,690.35s46.44-26,24.77-61.31c0,0-17.34-21.67-35.92-27.25,0,0,9.91,52.64,0,53.88s-6.82-59.45-6.82-59.45-48.92-23.53-68.12-21.68c0,0,30.35,51.4,20.44,50.17s-44-53.26-44-53.26-50.16-9.29-58.21,20.43,5,44.59,12.38,46.45,55.12,1.24,53.88,7.43-33.44,16.1-51.4,10.53c0,0,19.82,48.92,45.83,46.45s34.06-18.58,50.16-19.82,27.87,3.1,19.82,7.43-35.3,1.42-48.31,12.48-23.53,17.87.62,22.82,67.5,1.86,76.17-16.72Z"/><path class="cls-2" d="M84.77,601.17s130.05,42.12,144.92,89.18c0,0-.63,21.06,12.38,45.21v9.29S228.45,713.26,221,708.93C221,708.93,250.12,668.06,84.77,601.17Z"/><path class="cls-2" d="M242.07,735.56s20.06,30.46,8.62,67.53l-5.16-1.39s5-40.83-5.48-61.37S242.07,735.56,242.07,735.56Z"/><path class="cls-3" d="M303.58,654.48s-61.23-34.29-32.66-80.82c0,0,22.86-28.57,47.35-35.92,0,0-13.06,69.39,0,71s9-78.36,9-78.36,64.49-31,89.8-28.58c0,0-40,67.76-26.94,66.13s58-70.21,58-70.21,66.12-12.24,76.74,26.94-6.53,58.78-16.33,61.23-72.65,1.63-71,9.79,44.08,21.23,67.75,13.88c0,0-26.12,64.49-60.41,61.23s-44.89-24.49-66.12-26.13-36.73,4.09-26.12,9.8,46.53,1.87,63.67,16.45,31,23.55-.81,30.08-89,2.45-100.41-22Z"/><path class="cls-2" d="M494.6,536.93s-171.43,55.51-191,117.55c0,0,.81,27.75-16.33,59.59v12.25s18-41.64,27.76-47.35C315,679,276.64,625.09,494.6,536.93Z"/><path class="cls-2" d="M287.25,714.07s-26.44,40.15-11.36,89l6.8-1.83s-6.6-53.83,7.23-80.9S287.25,714.07,287.25,714.07Z"/><path class="cls-4" d="M301.52,909.07A119.94,119.94,0,0,0,421.45,789.13H181.58A119.94,119.94,0,0,0,301.52,909.07Z"/><path class="cls-5" d="M331,908.15a120,120,0,0,1-134.83-119H226A120,120,0,0,0,331,908.15Z"/><path class="cls-4" d="M423.1,915.17H179.93a14.8,14.8,0,0,1,14.79-14.8H408.31a14.8,14.8,0,0,1,14.79,14.8Z"/><rect class="cls-6" x="177.64" y="789.13" width="246.53" height="3.68"/><path class="cls-7" d="M1487.91,874.57s2.48,40.09,10.24,40.66c1,.08,39.34.08,39.34.08l48.89-.28s-.32-11.78-14.61-14.27-38.22-12.54-46.88-31.43C1515.79,849.45,1487.91,874.57,1487.91,874.57Z"/><path class="cls-8" d="M1461.81,400.47s23.08,13.13,29.55,13.12,31.83-4.9,38.9-1.29,19.87,18.15,22.27,22.9c4.32,8.54-17.39,4.77-27.64-2.5a6.46,6.46,0,0,0-5.13-1.06c-5.31,1.16-16.35,3.16-21.68,1.19-7.17-2.65-44.92-5.6-44.92-5.6Z"/><path class="cls-9" d="M1286.17,221.69s23.94,170.08,63.56,185.32c19.55,7.51,106,24.55,131.53,26.27,0,0,6.26-5.08,4.73-25.76,0,0-90.53-33.24-103.39-51.31-19.14-26.91,11.88-109.9-12.14-135.17S1306,184.92,1286.17,221.69Z"/><path class="cls-1" d="M1294.24,580a296.56,296.56,0,0,0,23.38,33.45c25.72,32.47,53.71,59.24,58.59,84.55a115.46,115.46,0,0,0,4.52,16.2c2,5.79,4.56,11.89,7.46,18.19,10.92,23.71,27.24,50.27,43.54,74.42,28.17,41.74,54.66,76.57,54.66,76.57l48.58-2.07c-2-4.87-23.13-62.5-51.48-132.94l-35.56-88.34q-2.36-5.88-4.7-11.68c-3.61-9-7.16-17.82-10.63-26.42l-47.82-118.81S1278.41,462.85,1267.36,489C1258.25,510.49,1265.67,531.58,1294.24,580Z"/><path class="cls-7" d="M1375.41,760.05s-33.79,21.71-30.51,28.76c.44.94,19.11,34.38,19.11,34.38l24.09,42.56s10.13-6,5.34-19.72-7.69-39.48,4.58-56.24C1410.94,772.14,1375.41,760.05,1375.41,760.05Z"/><path class="cls-2" d="M1392,798.21s-21.12-18.62-24.85-32.29c0,0,87-104.26,105.9-127.63.86-1.07.64-2.25-.5-3.54-14.25-16.07-172.58-48.73-193.27-80.93A99.81,99.81,0,0,1,1265.86,523c-4.69-19.65-1-33.21-1-33.21L1423,485.21s131.65,82,146.56,137.87S1392,798.21,1392,798.21Z"/><path class="cls-10" d="M1472.5,634.75c-14.25-16.07-172.58-48.73-193.27-80.93A99.81,99.81,0,0,1,1265.86,523V503l67.2-10.57s19.06,58.64,75.5,80.63C1461.43,593.65,1471.44,630.2,1472.5,634.75Z"/><path class="cls-8" d="M1379.73,211c-32,8.27-85-21.37-85-21.37s20.59-13.84,28.22-44.24q.58-2.3,1-4.71l16.43-3.48,24.43,21.89a208.69,208.69,0,0,1-3.61,24.71c-.53,2.72-1.14,5.65-1.84,8.76A75.53,75.53,0,0,1,1379.73,211Z"/><path class="cls-11" d="M1260.84,343.56c4.58,61.63-1.44,155.35,3.76,171.58,4.48,14,55.59,5.68,76,1,7.55-1.73,16.69-4.21,26.14-7.13,26.35-8.16,55.06-19.81,58.14-28.46a8.38,8.38,0,0,0,.29-1,7.94,7.94,0,0,0-.06-3.63c-1-4.41-5-9.18-5.45-20.09-.52-12.19-.44-26.54-.9-42,0-1.74,0-3.64-.24-5.37v-.63c0-.33,0-.65,0-1-.44-17.21-1.34-35.3-2.38-53.25-.67-11.27-1.43-22.43-2.32-33.13-2.3-27.6-5.39-52.15-9.49-67.67-6.7-25.3-21.47-41.8-34.92-53.89l-9.72-8.34c-10.85,2.37-23.68.8-35.28-4.7-12.56-6-16.9-10.24-19.08-8.63C1276.29,199.66,1255.43,268.23,1260.84,343.56Z"/><path class="cls-9" d="M1366.74,509c26.35-8.16,55.06-19.81,58.14-28.46a8.38,8.38,0,0,0,.29-1l-.06-3.63c-1-4.41-5-9.18-5.45-20.09-.52-12.19-.44-26.54-.9-42,0-1.74,0-3.64-.24-5.37v-.63c0-.33,0-.65,0-1L1312,271.18S1240.36,420.29,1366.74,509Z"/><path class="cls-12" d="M1364.84,159.06a208.69,208.69,0,0,1-3.61,24.71c-23.86-7.72-34.68-29.27-38.3-38.41q.58-2.3,1-4.71l16.43-3.48Z"/><path class="cls-8" d="M1368.05,172.83s-52-8.68-46.12-41,3.17-55.21,36.64-51,37.65,17.69,38.3,29S1381.74,174.26,1368.05,172.83Z"/><rect class="cls-13" x="1592.26" y="326.87" width="4.82" height="126.33" transform="translate(2990.86 1253.62) rotate(-162.01)"/><rect class="cls-13" x="1444.98" y="441.51" width="132.57" height="7.93" transform="translate(3012.68 923.11) rotate(-178.78)"/><path class="cls-8" d="M1447.57,454.35s42.58,11.23,58.55,10,29.25-8.77,31.26-12.74,6.23-11-4.64-9.7-25.71,3.61-26.18,1.52,8.87-1.89,8.87-1.89,2.82-4.09-.73-4.24-13.9-3-17.75-1-7.39,9-10.2,8.73-35.63-14.79-35.63-14.79Z"/><path class="cls-11" d="M1296.73,228.67s5,171.68,42.74,191.19c18.61,9.63,102.62,36.09,127.83,40.61,0,0,6.79-4.36,7.55-25.08,0,0-86.32-43-97.11-62.39-16.06-28.85,23.93-107.92,2.84-135.69S1320.48,194.3,1296.73,228.67Z"/><path class="cls-14" d="M1322.93,145.36s-.59-11.09,6.25-17.44c0,0-2.38-11.12,2-13s5.31,7.52,7.33,6,11-8.43,14.84-18.69,39.07,2.16,43.18,4,17.3-4.93,19.86-10.43c0,0-7.33-5.86-10.63-10.26S1379.39,51.56,1347.14,60s-36.65,23.83-34.82,37S1309.73,140.94,1322.93,145.36Z"/><path class="cls-15" d="M344.84,211.27l27.76-2.65a5.09,5.09,0,0,1,5.19,3.12l21,50.45a5.1,5.1,0,0,1-4.22,7L365.64,272a5.08,5.08,0,0,1-5.22-3.21l-19.84-50.55A5.1,5.1,0,0,1,344.84,211.27Z"/><path class="cls-14" d="M696.84,877.85l-14.73,7.82s-79.65-84.45-98.8-165.5c-3.41-14.47-4.8-28.74-3.33-42.28,0,0-1.16-3.67-3.19-10.16-.08-.28-.18-.58-.27-.87-.88-2.84-1.95-6.19-3.13-10-3.84-12.24-9.13-29-15.15-48.08-13.86-43.91-45.57-142.93-59.12-184.12l97.39-35.24s11.06,25.23,27,93.78c2.45,9,4.9,18.85,7.19,29.63,2.6,12.21,5,25.56,7,40a612.89,612.89,0,0,1,5.84,82.08c.05,12.27-.25,25-1,38.12-.53,9.62.9,22.44,3.58,37C658.4,776.76,696.84,877.85,696.84,877.85Z"/><path class="cls-15" d="M750.16,915.17H671.43s-2.94-12.56,2.22-21.1c4.58-7.56,2.83-11.87-.56-18.13a30.58,30.58,0,0,0,13.26,2.5c3.92-.22,8.07-2,11.71-4.12,3.39,3.87,17.89,20.31,22.43,23.57C725.63,901.59,748.58,900.27,750.16,915.17Z"/><path class="cls-15" d="M637.69,552.83l-61.17,114c-.88-2.84-1.95-6.19-3.13-10-3.84-12.24-9.13-29-15.15-48.08-13.86-43.91-45.57-142.93-59.12-184.12l97.39-35.24s11.06,25.23,27,93.78c2.45,9,4.9,18.85,7.19,29.63C633.25,525.05,635.67,538.4,637.69,552.83Z"/><path class="cls-16" d="M372.56,301.34c-.49.43-23.83-23.43-36.29-36.65l12.48-7.6,68.15,42.79Z"/><path class="cls-15" d="M497.54,890.52s-1.83,13.37,3.3,24.65h32.62s.24-9.74-8.07-22S497.54,890.52,497.54,890.52Z"/><path class="cls-17" d="M561.82,20.28c.44-2.08,6-24.42,40.65-19.6,0,0-17.29-.93-21.51,6,0,0,13.14-7.2,22-2.6s11.53,22,10.65,27.43-9.15,22-15.36,22.41A18.75,18.75,0,0,1,591,52.68a80,80,0,0,1,3.19,9.06c8.84,30.61-10.13,55.72-21.24,50.64-7.12-3.25-11.45,9.12-11.45,9.12L499.24,50.18S535.46-.28,561.82,20.28Z"/><path class="cls-16" d="M498.07,211.52c8.13,5.64,18.32,10.29,31.11,13.24,47.94,11.08,66.32-29.45,73.22-57.26a41.16,41.16,0,0,0-16.25-5c-3.46-.41-7.11-.68-10.12-.83-5.39-4.13-13.41-21-15.18-47.2l-2.26.6L520.8,125.42s1.74,12,2.58,23.37c.66,8.88.76,17.37-.92,19.45-3,.64-4.72,1.06-4.72,1.06l0,0A243,243,0,0,0,498.07,211.52Z"/><path class="cls-18" d="M520.8,125.43s1.74,12,2.58,23.36c21.41-2.14,31.34-22.52,35.21-33.7Z"/><path class="cls-16" d="M514.41,136.7s50.81-2.8,48.58-34.42S565.81,49,533.27,49.47s-38,13-39.8,23.69S501.13,136.62,514.41,136.7Z"/><path class="cls-17" d="M493.72,55.48c7.16-10.07,13.24-8.41,16.77-5.79,26.64-17.24,46.14,4,46.14,4,5,22.44,22.31,34.26,22.31,34.26s-8.84,6.38-30.56,2.43c-6.63-1.21-12.78-5.42-18.13-10.68a118.89,118.89,0,0,0,22.16,23.42C526.1,93.2,513.32,58.5,512,54.83c-2.9,3-8.58,9.48-10,15.54-1.95,8.23-1.9,24.89-6.78,24.67C495.25,95,483,70.58,493.72,55.48Z"/><path class="cls-16" d="M506.19,166.75S589,146.66,625,176.34L607,427.2,445.08,388.09s4.55-15.87,35.6-58.08S498.22,225.88,506.19,166.75Z"/><path class="cls-14" d="M554.44,399.28l-.26,2.47c-.07.7-.17,1.54-.27,2.52-.7,6.5-2,19-3.72,35.2C545.75,482,538.78,550.35,534,604.29c-3.72,42.17-6.08,75.55-4.8,80.9,3.83,16.13,0,208.92,0,208.92-13.76,6.6-34.62,0-34.62,0S458,720.38,463.09,696.23a83.2,83.2,0,0,0-3.43-44.76C431.2,519,434.31,445.5,440,410.33a148.91,148.91,0,0,1,4.86-21.47,44.1,44.1,0,0,1,1.95-5.27C509.55,366.7,554.44,399.28,554.44,399.28Z"/><path class="cls-15" d="M607,427.2a159.47,159.47,0,0,1-56.78,12.27A190.16,190.16,0,0,1,503.47,435c-31.05-6.75-54.69-19.25-63.5-24.71a148.91,148.91,0,0,1,4.86-21.47c19.11-13.6,66.37-.58,105,13.85l4.11,1.56C583.47,415.58,607,427.2,607,427.2Z"/><path class="cls-11" d="M636.12,247.89c-4,30.18-20,67.11-25.69,87,0,0,9.54,69,.43,88A8.4,8.4,0,0,1,607,427.2c-33.75,14.71-165.22.43-170.76-42-2-15.41,50.07-69.61,53.1-76.18,1.27-2.72,2.61-11.54-3.5-29.82-8.66,26.69-24.64,57.51-40.73,62.77-17.67,5.78-87.55-46.3-87.55-46.3s-.41-6.32,8.43-12.3c5.68-3.85,18.73-5.15,18.73-5.15l44.68,20c5.61-9.6,19.58-76,35.18-106,11.73-22.52,43.05-25.79,43.05-25.79s13,20.68,44.55,17.74S589.43,162,589.43,162s28,3.71,36.57,10.66C627.5,173.89,641.36,208.35,636.12,247.89Z"/><path class="cls-9" d="M610.43,334.88s9.54,69,.43,88c-24.6-12.35-56.65-39-46.89-80.63,14.17-60.49,72.15-94.33,72.15-94.33C632.12,278.07,616.14,315,610.43,334.88Z"/><path class="cls-16" d="M589.43,288.49s-35,5.08-37.8,7.69-12.45,17.8-11.26,23.08,1.07,10.72,3.21,10.35,9.13-13.8,11.78-14.42,4.82-2.42,5.14-1.24-5.38,6.82-5.1,8.43,4.77-.28,6.78-3.39,7-4.66,7.8-6.6,4.22-8.37,8.93-8.07S589.43,288.49,589.43,288.49Z"/><polygon class="cls-16" points="623.5 287.11 589.43 288.49 577.78 304.38 624.11 305.93 623.5 287.11"/><path class="cls-11" d="M589.43,162s40.6,4.81,51.78,22.22c14.14,22,64.07,95,63,117.11,0,0-31.11,12.39-114.74,5.75,0,0-1.52-12.65,16.07-22.8,0,0,44.9-6.15,49.84-10.5l-33.33-35.43Z"/><path class="cls-14" d="M338.79,211.82l27.76-2.65a5.09,5.09,0,0,1,5.19,3.12l21,50.45a5.08,5.08,0,0,1-4.22,7l-28.88,2.76a5.08,5.08,0,0,1-5.23-3.21l-19.84-50.55A5.1,5.1,0,0,1,338.79,211.82Z"/><path class="cls-16" d="M336.27,264.69s-7.33-12.64-6.78-15.76,8.14-17.56,12-19c7-2.57,16.74-4.16,14.05,3.17-1.77,4.84-8.79,11.85-7.57,14s.75,9.93.75,9.93Z"/><path class="cls-19" d="M1442.68,810c-10,63.74-75,104.34-141.72,104.34H1168.81l10.33-371.55s126.09-40.47,157.76-2c27.74,33.73,103,167.23,106.94,246.26A111.53,111.53,0,0,1,1442.68,810Z"/><path class="cls-20" d="M1091.87,582.12s178.27-91,212-31.56c17.93,31.56,67.27,157.47,70.91,236.49,3.54,76.78-63,127.27-131.4,127.27H1121.89Z"/><path class="cls-4" d="M1125.39,632.58c-1.51,7.74-15.94,14.91-37.36,21.26-3.77,1.12-7.76,2.22-11.94,3.29-72.9,18.61-202,29-214.33,23.52-17-7.59-121.39-378.46-121.39-378.46s99.64-3.75,178.77-5.57c27.07-.62,51.74-1,69.2-1a42.07,42.07,0,0,1,6,.42,28.49,28.49,0,0,1,17.61,9c12.74,13.7,15.9,40.74,27.7,70.63,11.66,29.56,26,66.45,39.55,103.05,3.5,9.44,7,18.85,10.29,28.12,1,2.62,1.88,5.22,2.81,7.81C1112.36,570.83,1127.81,620.06,1125.39,632.58Z"/><path class="cls-21" d="M1442.68,810c-10,63.74-75,104.34-141.72,104.34h-64.82C1279.36,885,1318.45,794.72,1442.68,810Z"/><path class="cls-22" d="M1092.3,514.69c-3.31-.54-7.59-1.25-12.43-2.07a11.32,11.32,0,0,1-2.29-3.11c-1.95-4.29-.62-16.61,1.62-30.75-13.58-36.6-27.89-73.49-39.55-103-11.8-29.89-15-56.93-27.7-70.63a28.49,28.49,0,0,0-17.61-9c-10.52.14-21.62.33-33.08.54-4.07,8.07-11.08,15.68-23.2,22.06-54.06,28.46-14,87.1-14,87.1.39.27,21.46,42.14,21.46,42.14-.07-2.93,2.76-8.16,7.62-14.83,3.59,25,9.42,50.6,16.39,68.9-3.82,19.33-13.62,48.12-18.86,70.14-4.2,17.56-5.5,30.8,1.43,31.45a14.79,14.79,0,0,0,2.58,0,35.7,35.7,0,0,0,4.22,19.26c13.54,26.19,78.72,30.91,129.09,31,21.42-6.35,35.85-13.52,37.36-21.26C1127.81,620.06,1112.36,570.83,1092.3,514.69Z"/><path class="cls-23" d="M1338.61,857.23c-25.51,35.44-64.63,58.16-108.22,57.46l-187.38.09-89.78,0,101-332.66s255.65-25.43,287.18,8.49c14.63,15.74,22.85,87.05,27.45,158.93C1371.47,790.11,1359.67,828,1338.61,857.23Z"/><path class="cls-20" d="M1338.61,857.23c-25.51,35.44-64.63,58.16-108.22,57.46l-187.38.09c22-18.51,91.39-71,165.64-68.55C1264.94,848.12,1309.63,847.31,1338.61,857.23Z"/><path class="cls-24" d="M1108.25,349.33s15.57,23,24.45,71.47c7.78,42.42,14.6,58.08,25.83,66.78s73.8,34.38,73.8,34.38l-4.68,11s-91.71-12.49-102-27.82-49.58-105.89-46.53-126.75S1108.25,349.33,1108.25,349.33Z"/><path class="cls-16" d="M1332.84,855.27c-.82,9,11.63,11.12,26.05,11.84s10.07,3.67,29.83,7.25,27.69-1.83,29.12-4.5c1.27-2.37-7.92-6.07-17.71-10.26-1.23-.52-2.47-1.06-3.7-1.6-11-4.85-17.21-14.73-25.8-23.9-8.14-8.68-15.87-36.47-15.87-36.47l-26.86-5.74s7.54,25,10.16,35.7c1.54,6.28-.73,13.3-2.75,18.65A35,35,0,0,0,1332.84,855.27Z"/><path class="cls-25" d="M1358.89,867.11c14.42.72,10.07,3.67,29.83,7.25s27.69-1.83,29.12-4.5c1.27-2.37-7.92-6.07-17.71-10.26l-.15.17a56.29,56.29,0,0,1-29.94.36c-13.08-3.56-25.72-11.37-34.73-13.89a35,35,0,0,0-2.47,9C1332,864.22,1344.47,866.39,1358.89,867.11Z"/><path class="cls-7" d="M1065.38,536.77s178.48-13.43,212.08,7.77S1365,812.76,1365,812.76s-3.33,2.66-10.76,3.47c-6.91.74-22.12-3.32-22.12-3.32s-77.45-110.52-82.9-138.36-4.13-52.69-16.55-53.35S1065.35,640,1041.93,598.76s-4.06-82.11-4.06-82.11Z"/><path class="cls-16" d="M1264.55,883.94c-.83,8.94,11.62,11.12,26,11.84s10.06,3.67,29.83,7.25,27.68-1.83,29.11-4.5c1.28-2.37-7.91-6.07-17.71-10.26l-3.7-1.6c-11-4.85-17.2-14.73-25.8-23.9-8.14-8.68-15.86-36.47-15.86-36.47l-26.86-5.74s7.54,25,10.16,35.69c1.54,6.29-.74,13.31-2.75,18.65A34.82,34.82,0,0,0,1264.55,883.94Z"/><path class="cls-25" d="M1290.6,895.78c14.42.72,10.06,3.67,29.83,7.25s27.68-1.83,29.11-4.5c1.28-2.37-7.91-6.07-17.71-10.26l-.15.16a56.29,56.29,0,0,1-29.94.36c-13.07-3.55-25.72-11.36-34.72-13.89a34.82,34.82,0,0,0-2.47,9C1263.72,892.88,1276.17,895.06,1290.6,895.78Z"/><path class="cls-26" d="M1030.42,547.83s158.55,7.5,191.3,30,77,271.42,77,271.42-3.42,2.53-10.88,3c-6.93.47-22-4.18-22-4.18s-73.08-113.45-77.45-141.48-2.07-52.81-14.46-54S1006.06,665,984.26,622.84,1030.42,547.83,1030.42,547.83Z"/><path class="cls-27" d="M1086.92,198.93c-7-4.65-15.77-5.68-21.93-5.73a10.46,10.46,0,0,1,4.83-1.91c-3.76-.82-12.5,2.38-12.5,2.38-51.51-23.89-65,53.4-65.11,71.56s-1.35,39-28.83,53.45c-54.06,28.46-14,87.1-14,87.1.4.27,21.46,42.14,21.46,42.14-.36-14.7,72.23-87.34,108.95-108.09,9.41-12,13.93-34.11,14.28-35.85-2.66,17.56-6.34,27.27-9.41,32.66C1116.32,311.21,1105.56,211.23,1086.92,198.93Z"/><path class="cls-16" d="M1023.75,322.79s14,.61,28.77,2c10,1,20.73,2.06,26.39,4.42,14,5.85,12.51,30.58-16.82,26S1021.7,330.13,1023.75,322.79Z"/><path class="cls-16" d="M1077.67,340.84c.17.09,4.18,21.28-15,20.43-12.6-.55-39.78-15.8-37.38-26.6,1.14-5.13,10.66-18.44,12.58-48.81l2.29.61,38.58,10.35s-1.71,12.24-2.51,23.83C1075.54,330.38,1075.51,339.65,1077.67,340.84Z"/><path class="cls-24" d="M1078.72,296.82s-1.71,12.24-2.51,23.83c-21.83-2.08-32.07-22.8-36.07-34.18Z"/><path class="cls-27" d="M1036.39,282s-10.26-18.88-12-34.55c-1.23-11.19,7.13-51.81,47.93-43.16A56.15,56.15,0,0,1,1095,214.56c8.54,6.64,20.58,20.54,3.76,55.35l-4.55,11.83Z"/><path class="cls-16" d="M1085.3,308.28s-51.82-2.6-49.71-34.84-3.15-54.29,30-54,38.78,13,40.69,24S1098.83,308.13,1085.3,308.28Z"/><path class="cls-27" d="M1089.24,220.22s-16.69,36.88-38.81,41-31.17-2.32-31.17-2.32,17.57-12.14,22.57-35C1041.83,223.89,1079.75,201.51,1089.24,220.22Z"/><path class="cls-27" d="M1085.52,223.06s10,9.15,12.06,17.53,2.06,25.36,7,25.12c0,0,12.39-25,1.36-40.34C1094.28,209.1,1085.52,223.06,1085.52,223.06Z"/><path class="cls-26" d="M1137.14,539.46c-4.19,5-17.29,6.55-31.28,8.86-11,1.81-22.58,4.09-30.8,8.93-18.68,11-79.7,48-97.59,46.34-6.94-.66-5.64-13.89-1.44-31.46,6.61-27.74,20.45-66.26,20.45-83,0-9.14,3-30.77,7.11-55.5.33-2,.66-4,1-6,8-48.08,19.16-104.78,19.16-104.78s12.41,27.08,36.6,27.08,18.56-20.65,18.56-20.65,22.06,2.59,27.27,8.21,18.44,29.88,21.06,36.5c0,0,.54,8.42-20.32,12.43,0,0,5.08,22.87,5.68,38.11.45,11.26-7.68,46.49-10,68.41-.83,7.76-.94,13.86.33,16.62,1.61,3.54,6.83,7.07,12.77,10.53C1127.46,526.9,1142.12,533.5,1137.14,539.46Z"/><path class="cls-7" d="M1115.68,520c13.38,22.82-36.3,29.68-44.53,34.51-18.68,11-75.79,50.72-93.68,49-6.94-.66-5.64-13.89-1.44-31.46,6.61-27.74,20.45-66.26,20.45-83,0-9.14,3-30.77,7.11-55.5L1025.12,413s23.06,59.62,45.06,69.39a184.53,184.53,0,0,0,32.4,10.55c-.83,7.76-.94,13.86.33,16.62C1104.52,513.05,1109.74,516.58,1115.68,520Z"/><path class="cls-16" d="M1017.14,340.64s-18.41-11.17-36.21,10,12.65,172.8,39,180.59c29.3,8.65,113.92-1.39,113.92-1.39l-1.63-13.22s-90.09-17.28-93.83-22.09S1026.5,343.09,1017.14,340.64Z"/><path class="cls-26" d="M1023.75,322.79S986,326.2,975,338.64s-14.19,46.13-14.19,46.13,33.29,26.87,73.41,16.44Z"/><rect class="cls-28" x="1142.7" y="536.96" width="49.93" height="5.9"/><path class="cls-28" d="M1182,542.05c.49-1.95,45.9-73.27,45.9-73.27h101l-50.68,71.35Z"/><path class="cls-27" d="M1186.28,542.86c.49-2,46-74.08,46-74.08H1329l-48.22,74.08Z"/><path class="cls-28" d="M1271.48,506.06a8.06,8.06,0,0,1-7,5.23c-2.89,0-4.42-2.34-3.43-5.23a8.07,8.07,0,0,1,7-5.23C1270.94,500.83,1272.48,503.17,1271.48,506.06Z"/><path class="cls-16" d="M1124.89,515.86s29.33-5.68,32.64-4.26,21.76,18,19.87,21.29-9.46,5.68-18,2.84-27-4.26-30.27-8.52S1124.89,515.86,1124.89,515.86Z"/><path class="cls-19" d="M1183.34,813.31c-10.72,61.83-69.53,101-129.8,101H932l9.5-371.55s116-40.47,145.08-2c25.52,33.73,94.71,167.23,98.35,246.26A120.69,120.69,0,0,1,1183.34,813.31Z"/><path class="cls-21" d="M1183.34,813.31c-10.72,61.83-69.53,101-129.8,101H956.28C1001.81,883.47,1063.1,798.21,1183.34,813.31Z"/><path class="cls-23" d="M994.94,914.05l-2.73.17c-1.92.11-3.85.17-5.78.2l-1.93,0H863v-.06l-7,.09c-12.52.15-25.59.3-37.71.4l-6,0h-2.19c-12,.08-22.57.12-30.13.07a199.59,199.59,0,0,1-30-2.32,134,134,0,0,1-33.49-9.58,108.7,108.7,0,0,1-10.66-5.41,105.59,105.59,0,0,1-13.18-9,119,119,0,0,1-28-32.92A180.18,180.18,0,0,1,649.94,824a306.62,306.62,0,0,1-12.78-50.94c-4.67-27.32-7.34-59.13-8.15-95.92q-.48-22.21-.07-46.88.64-39.43,3.52-85.4c2.67-43.08,6.75-90.6,12.14-142.91,4.92-47.78,10.6-81.18,18.85-88.78C675.63,302,701,297.47,718.68,295.66h0c11-1.12,18.93-1.21,18.93-1.21,21.58,0,40.77,15.49,47.7,38.52,14.1,46.88,39.28,130.71,65.48,218.39.14.44.27.88.4,1.32l4.52,15.14c.23.77.47,1.54.7,2.31l4.59-2,.16-.07c6.28-2.79,13.39-5.83,21.07-8.94h0c4-1.62,8.11-3.25,12.36-4.88,12-4.59,24.94-9.14,38.06-13.05,5.82-1.75,11.68-3.37,17.51-4.8,7.48-1.86,14.91-3.43,22.14-4.59l.63-.11,2.56-.38c31.21-4.58,58.29-1.4,69.49,18.36,17.93,31.65,67.26,157.93,70.9,237.18C1119.28,859.88,1059.52,909.2,994.94,914.05Z"/><path class="cls-19" d="M800,585S737.61,330.86,733.11,309.5c-2-9.52-8.19-13-14.41-13.84,11-1.12,18.94-1.21,18.94-1.21,21.58,0,40.76,15.45,47.69,38.41,15.1,50.07,42.92,142.41,71.1,236.47C855,569.29,800,585,800,585Z"/><path class="cls-20" d="M1029.82,707.18c-16.7-27.59-2.68-32.77-5.24-94.58S993.24,555.9,981.3,544c-2.18-2.2-4-6.68-5.79-12.69l-2.56.38-.63.11c-7.23,1.16-14.66,2.73-22.14,4.59-5.83,1.43-11.69,3-17.51,4.8-13.12,3.91-26.07,8.46-38.06,13.05-4.25,1.63-8.38,3.26-12.36,4.88C871.93,623.9,856,914.47,856,914.47s.25.27.39.4c13-.12,27.15-.27,40.56-.43l5.7-.08v.06h91.71c.13-.06.25-.15.38-.22l.25-.15c24.63-15.28,19.13-45.93,13.33-65.14-2.34-20.55-11.41-44.61-18.83-67,2.3-6.81,5.53-10.71,19.41-15.83,15.42-5.68,19.46-30,19.46-30,4.12,10.85-5.3,25.83-5.55,26.22C1023.3,761.74,1046.32,734.45,1029.82,707.18Z"/><g id="girl_2" data-name="girl 2"><path class="cls-18" d="M824.94,581.93s-92.52,40.3-109.32,39.57S595.34,590,595.34,590l2.64,17.8s79.86,45.93,107.78,48.54c27.49,2.56,121.48-24.67,130.56-30.42S851.31,587.74,824.94,581.93Z"/><path class="cls-15" d="M838.84,433.64S873,427.16,890,439.57c30.79,22.49,32.44,100,44,111.56s39.36,6.62,41.84,66.38-11.08,64.75,5.06,91.42S974,762.31,974,762.31s9.4-14.73,5.37-25.36c0,0-3.91,23.46-18.82,29s-17.1,9.53-19.48,17.59c0,0-127.13-65.14-127.27-111.35s-25-92-12.8-112c0,0-5.44,8.56-6.11,18.09,0,0-7.33-14,5.38-27.12S785.39,511,789.48,479.66C792.29,458.14,807.38,434.58,838.84,433.64Z"/><path class="cls-16" d="M813.69,626c8.13,5.63,18.32,10.28,31.11,13.23,47.94,11.08,66.31-29.44,73.22-57.25a41.26,41.26,0,0,0-16.25-5c-3.46-.41-7.11-.68-10.13-.83-5.38-4.12-13.4-21-15.18-47.2l-2.25.61-37.79,10.34s1.73,12,2.58,23.36c.66,8.88.76,17.38-.92,19.45-3,.64-4.72,1.06-4.72,1.06l0,0A243,243,0,0,0,813.69,626Z"/><path class="cls-18" d="M836.42,539.85s1.74,12,2.58,23.37c21.41-2.14,31.34-22.53,35.21-33.71Z"/><path class="cls-16" d="M830,551.13s50.81-2.8,48.58-34.42,2.82-53.27-29.72-52.82-38,13-39.8,23.7S816.75,551,830,551.13Z"/><path class="cls-15" d="M809.34,469.9c7.16-10.07,13.24-8.41,16.77-5.79,26.64-17.24,46.14,4,46.14,4,5,22.44,22.31,34.26,22.31,34.26s-8.84,6.38-30.56,2.42c-6.64-1.21-12.79-5.42-18.13-10.68A118.77,118.77,0,0,0,868,517.57c-26.32-10-39.09-44.64-40.38-48.32-2.9,3-8.57,9.49-10,15.55-2,8.23-10.38,21.1-15.25,20.88C802.4,505.68,798.6,485,809.34,469.9Z"/><path class="cls-27" d="M932.49,729.26c4.59-23.46,19.55-117.18,4.59-147.34-5.38-10.83-26.46-11.81-49.59-10.86-7.2,4.65-34.63,22.21-45.9,20l-.63-.15c-5.3-1.33-7.31-5-2.88-8.27a101.58,101.58,0,0,0-25.69,1.58c-8,1.51-29.71,12.73-29.71,12.73s10.91,19.72,27,26.52C807,648,811,658.78,836.42,715.33c21.47,47.8-2.89,90.84-2.89,90.84S959.87,907.75,960.58,856C961.11,817.09,926.62,759.24,932.49,729.26Z"/><path class="cls-29" d="M827.26,916.63a23.49,23.49,0,0,1-16.89-10.29l-2-2.94c-14.38-21.77-20-88.45-52.32-159.48-7.88-17.29-36.17-20.4-43.88-39.95,0,0-19-63.36,36.33-65.23s148.14,176.3,149.61,195C899.57,851.82,934.72,928.75,827.26,916.63Z"/><path class="cls-28" d="M607.41,915.17h78.73s2.94-12.56-2.22-21.1c-4.58-7.56-2.83-11.87.56-18.13a30.58,30.58,0,0,1-13.26,2.5c-3.92-.22-8.07-2-11.71-4.12-3.39,3.87-17.89,20.31-22.43,23.57C631.94,901.59,609,900.27,607.41,915.17Z"/><path class="cls-28" d="M924.19,606.49S934.44,699.72,868,719.25s-85.32-85.78-31.66-93.35S924.19,606.49,924.19,606.49Z"/><path class="cls-9" d="M710.41,657.05c-4.74,35.54-23.25,147.72-55.91,202.45C644,877.15,681,887,681.23,887c5-1.3,13.24-9.23,17.06-12.67,26.51-23.89,80.34-91.55,80.34-145.8,0-26.45.46-77-18.77-89.8C748,630.81,712.29,642.94,710.41,657.05Z"/><path class="cls-11" d="M874.21,915.17s-2.92-4.06-8-11.77c-6.06-9.17-12.76-27.22-20.89-50.36-8.54-24.28-18.67-54.16-31.33-85.25-3.9-9.59-8-19.31-12.47-29-7.88-17.3-29.55-14.91-37.26-34.46,0,0-30.1-67.77,25.22-69.64S949.91,816,956,833.72C962.56,853.14,994.82,933.77,874.21,915.17Z"/><path class="cls-27" d="M665.2,915.17h78.74s2.94-12.56-2.23-21.1c-4.58-7.56-2.82-11.87.57-18.13a30.61,30.61,0,0,1-13.26,2.5c-3.93-.22-8.08-2-11.71-4.12-3.39,3.87-17.9,20.31-22.43,23.57C689.73,901.59,666.79,900.27,665.2,915.17Z"/><path class="cls-9" d="M845.32,853c-8.54-24.28-18.67-54.16-31.33-85.25,3.31-23.55,10.44-44.16,22.43-52.46C836.42,715.33,865.52,805.46,845.32,853Z"/><path class="cls-11" d="M756.37,654.53c-4.74,35.54-11.42,150.24-44.08,205C701.76,877.15,738.82,887,739,887c5-1.3,13.25-9.23,17.07-12.67,26.51-23.89,80.33-91.55,80.33-145.8,0-26.45-31-74.84-50.27-87.68C774.3,632.94,758.25,640.42,756.37,654.53Z"/><path class="cls-28" d="M585.94,544.18l80.63-8.57a5.21,5.21,0,0,1,5.41,3.33l28.85,75.8a5.2,5.2,0,0,1-4.65,7l-80,3.23a5.21,5.21,0,0,1-5-3.19l-29.47-70.47A5.21,5.21,0,0,1,585.94,544.18Z"/><path class="cls-27" d="M578.94,544.91l80.63-8.56a5.19,5.19,0,0,1,5.41,3.32l28.85,75.8a5.2,5.2,0,0,1-4.66,7l-80,3.23a5.19,5.19,0,0,1-5-3.19l-29.47-70.47A5.2,5.2,0,0,1,578.94,544.91Z"/><path class="cls-28" d="M623.63,580.3c-1-2.7.41-4.89,3.12-4.89a7.76,7.76,0,0,1,6.68,4.89c1,2.71-.41,4.9-3.12,4.9A7.75,7.75,0,0,1,623.63,580.3Z"/><path class="cls-28" d="M581.35,552.07a1.63,1.63,0,0,1,1.53-2.4,3.81,3.81,0,0,1,3.28,2.4,1.63,1.63,0,0,1-1.53,2.41A3.8,3.8,0,0,1,581.35,552.07Z"/><path class="cls-16" d="M918,581.93s-111.75,41.15-128.54,40.3C778.63,621.69,688.42,590,688.42,590l-8.1,15.32s87.8,56.43,111.94,56.15c47.65-.55,128.06-29.8,137.14-35.55S944.39,587.74,918,581.93Z"/><path class="cls-16" d="M688.42,590s-8.1-12.46-16.16-12.83-22,5.5-26.76,6.41-18.32,5.32-14.29,11.92,22.72,8.06,30.79,6.59,18.32,3.23,18.32,3.23Z"/><path class="cls-16" d="M674.45,577.54s-12.82-5.89-16.49-7-2.93,0-1.83,3.5,7.7,6.78,7.7,7.88S674.45,577.54,674.45,577.54Z"/><path class="cls-16" d="M587.24,583.38s8.09-12.79,10.74-13.31c8.06-1.59,8.06,9,6.35,15.88-1.83,7.35-8,14.28-9.76,13.68S585.34,590.14,587.24,583.38Z"/><path class="cls-16" d="M586.94,586s-2.59,14.34,11,21.83Z"/><path class="cls-30" d="M820.52,533s4.8-1.9,18.32-.81c0,0-.72,5.28-10.69,5.8C822.5,538.23,820.52,533,820.52,533Z"/><path class="cls-27" d="M860.44,602.22s10,31.64,44.32,38.84c0,0,56.68-17.47,28.46-56.08C933.22,585,905.32,564.25,860.44,602.22Z"/></g><rect class="cls-31" y="914.32" width="1780.68" height="6.8" rx="2.12"/></g></g></svg>